# xmcd CD database file
#
# Track frame offsets:
#	150
#	25773
#	52480
#	75017
#	96031
#	128410
#	152877
#	176761
#	198236
#	230690
#	246608
#	260600
#	285126
#	312973
#
# Disc length: 4567 seconds
#
# Revision: 0
# Processed by: cddbd v1.5.2PL0 Copyright (c) Steve Scherf et al.
# Submitted via: CDex 1.83
#
DISCID=b711d50e
DTITLE=Teddy Edwards - Complete Recordings 1947-1962 CD02
DYEAR=2017
DGENRE=Jazz
TTITLE0=Our Love Is Here To Stay
TTITLE1=Frankly Speaking
TTITLE2=Fools Rush In
TTITLE3=Undecided
TTITLE4=Beve's Conjumulations
TTITLE5=Willow Weep For Me
TTITLE6=Lover Come Back To Me
TTITLE7=Tempo De Blues
TTITLE8=Vintage
TTITLE9=I Hear A Rhapsody
TTITLE10=Up In Teddy's New Flat
TTITLE11=Sunset Eyes
TTITLE12=Teddy's Tune
TTITLE13=Takin' Off
EXTD=YEAR: 2017
EXTT0=
EXTT1=
EXTT2=
EXTT3=
EXTT4=
EXTT5=
EXTT6=
EXTT7=
EXTT8=
EXTT9=
EXTT10=
EXTT11=
EXTT12=
EXTT13=
PLAYORDER=
